<?xml version="1.0" encoding="utf-8"?>
<!-- Generated by IcoMoon.io -->
<!DOCTYPE svg PUBLIC "-//W3C//DTD SVG 1.1//EN" "http://www.w3.org/Graphics/SVG/1.1/DTD/svg11.dtd">
<svg version="1.1" xmlns="http://www.w3.org/2000/svg" xmlns:xlink="http://www.w3.org/1999/xlink" width="1024" height="1024" viewBox="0 0 1024 1024">
<g id="icomoon-ignore">
</g>
<path d="M877.714 128v640q0 28.571-19.429 50.857t-49.143 34.571-59.143 18.286-55.143 6-55.143-6-59.143-18.286-49.143-34.571-19.429-50.857 19.429-50.857 49.143-34.571 59.143-18.286 55.143-6q60 0 109.714 22.286v-306.857l-438.857 135.429v405.143q0 28.571-19.429 50.857t-49.143 34.571-59.143 18.286-55.143 6-55.143-6-59.143-18.286-49.143-34.571-19.429-50.857 19.429-50.857 49.143-34.571 59.143-18.286 55.143-6q60 0 109.714 22.286v-552.571q0-17.714 10.857-32.286t28-20.286l475.429-146.286q6.857-2.286 16-2.286 22.857 0 38.857 16t16 38.857z"></path>
</svg>
